# xmcd CD database file
#
# Track frame offsets:
#	150
#	13498
#	27287
#	42080
#	55796
#
# Disc length: 931 seconds
#
# Revision: 0
# Processed by: cddbd v1.5.1PL0 Copyright (c) Steve Scherf et al.
# Submitted via: CDex 1.51
#
DISCID=3903a105
DTITLE=Sean Sennett and Crush76 - 5 Songs That Start With The Letter 'S'
DYEAR=2004
DGENRE=Rock
TTITLE0=She's A Comet (alt)
TTITLE1=Sea Of Tranquility
TTITLE2=(The) Sun King (long version)
TTITLE3=She's A Comet (redux)
TTITLE4=Blinded By The Sun
EXTD=YEAR: 2004
EXTT0=
EXTT1=
EXTT2=
EXTT3=
EXTT4=
PLAYORDER=
